# xmcd CD Database Entry
#
# Track frame offsets:
# 150
# 27619
# 49315
# 72112
# 90004
# 115439
# 148485
# 168873
# 184614
# 214490
# 238950
# 263045
# 280859
# 308962
#
# Disc length: 4410 seconds
#
# Revision: 2
# Processed by: cddbd v1.4PL0 Copyright (c) Steve Scherf et al.
# Submitted via: tcd 2.0b
#
DISCID=d511380e
DTITLE=Deep Purple
DYEAR=1900
DGENRE=
TTITLE0=Ura 1
TTITLE1=Ura 2
TTITLE2=Ura 3
TTITLE3=Ura 4
TTITLE4=Ura 5
TTITLE5=Ura 6
TTITLE6=Ura 7
TTITLE7=Ura 8
TTITLE8=Ura 9
TTITLE9=Ura 10
TTITLE10=Ura 11
TTITLE11=Ura 12
TTITLE12=Ura 13
TTITLE13=Ura 14
EXTD=Remasters 1972
EXTT0=
EXTT1=
EXTT2=
EXTT3=
EXTT4=
EXTT5=
EXTT6=
EXTT7=
EXTT8=
EXTT9=
EXTT10=
EXTT11=
EXTT12=
EXTT13=
PLAYORDER=
